<?xml version="1.0" standalone="no"?>
<!DOCTYPE svg PUBLIC "-//W3C//DTD SVG 20010904//EN"
 "http://www.w3.org/TR/2001/REC-SVG-20010904/DTD/svg10.dtd">
<svg version="1.0" xmlns="http://www.w3.org/2000/svg"
 width="1440.000000pt" height="1920.000000pt" viewBox="0 0 1440.000000 1920.000000"
 preserveAspectRatio="xMidYMid meet">

<g transform="translate(0.000000,1920.000000) scale(0.100000,-0.100000)"
fill="#000000" stroke="none">
<path d="M2645 19190 c-18 -8 -17 -9 8 -9 15 -1 27 4 27 9 0 12 -8 12 -35 0z"/>
<path d="M2707 19193 c-9 -2 -15 -9 -11 -14 3 -5 10 -7 15 -4 5 4 9 1 9 -5 0
-6 -6 -10 -12 -9 -7 1 -26 0 -43 -1 -27 -3 -26 -3 10 -9 39 -6 40 -7 39 -43
-1 -26 3 -38 15 -41 10 -3 8 -5 -6 -6 -13 0 -23 -5 -23 -10 0 -5 -6 -9 -12 -8
-29 1 -48 -3 -48 -11 0 -4 16 -7 35 -7 42 2 37 -6 -13 -21 -28 -9 -31 -12 -14
-13 20 -1 21 -4 12 -21 -6 -11 -15 -18 -20 -15 -6 3 -7 0 -4 -8 3 -8 -5 -25
-18 -38 -13 -13 -26 -28 -28 -34 -2 -5 -10 -9 -17 -7 -7 2 -13 -6 -13 -17 0
-11 -3 -26 -6 -35 -4 -11 0 -16 14 -16 29 0 53 -11 46 -21 -3 -5 92 -7 223 -4
125 2 433 7 683 10 250 4 459 11 464 15 5 5 5 94 1 204 l-7 196 -28 0 c-16 0
-40 -4 -55 -10 -17 -7 -24 -7 -20 0 3 6 1 10 -4 10 -6 0 -11 -6 -11 -12 0 -9
-17 -14 -48 -15 -46 -1 -46 -1 -9 6 61 13 55 21 -18 21 l-68 0 6 -62 6 -63
-70 3 c-61 3 -69 2 -70 -15 -1 -13 -3 -11 -9 7 -5 16 -8 19 -9 8 -1 -15 -5
-16 -28 -7 -18 7 -30 6 -37 -1 -14 -14 -59 -13 -50 2 5 8 -2 9 -27 4 -65 -14
-149 -22 -160 -15 -8 5 -7 8 2 12 10 4 9 6 -3 6 -9 1 -19 -5 -22 -11 -5 -10
-7 -10 -12 0 -7 15 -31 16 -36 1 -5 -14 -68 -23 -68 -9 0 10 -35 10 -55 -1
-19 -10 -78 -10 -85 1 -5 8 -15 8 -34 0 -15 -5 -50 -10 -77 -10 -40 0 -49 -3
-50 -17 0 -14 -2 -13 -9 4 -7 17 -15 20 -37 17 l-28 -4 0 72 c0 76 -5 83 -48
71z m1232 -45 c0 -76 -12 -187 -19 -183 -5 3 -7 12 -3 20 3 8 2 23 -2 33 -6
16 -7 16 -20 -1 -11 -15 -13 -16 -19 -2 -6 17 -46 21 -46 4 0 -5 5 -7 10 -4 6
3 10 -4 10 -17 -1 -22 -2 -22 -25 7 l-25 30 28 3 c15 2 32 8 37 14 7 7 0 8
-22 3 -20 -4 -33 -3 -33 3 0 5 -11 13 -25 16 -14 4 -25 13 -25 20 0 16 27 29
42 20 6 -4 8 1 3 15 -4 12 -2 21 4 21 6 0 11 -7 11 -15 0 -8 7 -15 15 -15 8 0
15 5 15 10 0 6 -5 10 -12 10 -26 0 9 19 42 23 19 2 40 5 47 5 6 1 12 -8 12
-20z m11 -218 c0 -5 -2 -10 -4 -10 -3 0 -8 5 -11 10 -3 6 -1 10 4 10 6 0 11
-4 11 -10z m0 -47 c-1 -24 -2 -26 -11 -10 -5 9 -7 22 -4 27 10 17 15 11 15
-17z m-1080 -7 c0 -3 -4 -8 -10 -11 -5 -3 -10 -1 -10 4 0 6 5 11 10 11 6 0 10
-2 10 -4z m747 -18 c-3 -8 -6 -5 -6 6 -1 11 2 17 5 13 3 -3 4 -12 1 -19z"/>
<path d="M3878 19128 c-22 -22 -22 -28 -3 -28 8 0 15 -4 15 -9 0 -5 9 -11 20
-14 16 -4 20 0 20 20 0 16 -4 22 -12 17 -7 -5 -9 -2 -5 9 9 23 -15 27 -35 5z"/>
<path d="M3793 19093 c9 -2 25 -2 35 0 9 3 1 5 -18 5 -19 0 -27 -2 -17 -5z"/>
<path d="M4500 19163 c0 -21 9 -265 20 -543 11 -278 20 -513 20 -522 0 -11 14
-24 36 -33 30 -12 122 -16 548 -20 656 -7 1680 -23 1816 -30 58 -3 110 -2 116
2 8 6 13 184 18 596 l7 587 -120 0 -121 0 -2 -182 c0 -101 -2 -237 -4 -303 -1
-66 -2 -180 -3 -252 l-1 -133 -170 0 c-150 0 -170 2 -179 18 -10 16 -10 16
-11 -2 0 -18 -11 -18 -267 -12 -148 3 -504 6 -793 7 -289 1 -550 4 -580 8
l-55 6 -8 85 c-4 47 -8 196 -10 332 -1 136 -6 250 -10 254 -4 4 -7 38 -7 75 0
57 3 67 17 65 10 0 19 7 21 17 3 16 -9 17 -137 17 l-141 0 0 -37z m190 -573
c0 -5 -2 -10 -4 -10 -3 0 -8 5 -11 10 -3 6 -1 10 4 10 6 0 11 -4 11 -10z m-90
-150 c0 -5 -4 -10 -10 -10 -5 0 -10 5 -10 10 0 6 5 10 10 10 6 0 10 -4 10 -10z
m0 -34 c0 -2 -9 -6 -20 -9 -11 -3 -18 -1 -14 4 5 9 34 13 34 5z"/>
<path d="M7866 19004 c-7 -169 -6 -199 7 -212 14 -13 82 -14 614 -3 661 13
824 18 847 27 22 8 24 20 31 212 l7 172 -120 0 -120 0 -7 -39 -6 -39 -117 -4
c-64 -2 -135 -1 -157 3 -22 4 -44 4 -50 -1 -5 -4 -161 -9 -345 -11 l-335 -4
-3 48 -3 47 -118 0 -118 0 -7 -196z"/>
<path d="M13280 19193 c0 -5 -7 -53 -15 -108 -31 -204 -74 -514 -90 -650 -9
-77 -41 -311 -70 -520 -30 -209 -66 -486 -80 -615 -25 -237 -32 -291 -104
-815 -22 -159 -52 -378 -66 -485 -62 -467 -166 -1187 -224 -1540 -22 -135 -49
-319 -61 -410 -11 -91 -29 -226 -40 -300 -18 -125 -80 -576 -115 -835 -8 -60
-28 -209 -45 -330 -16 -121 -36 -276 -45 -345 -8 -69 -22 -168 -31 -220 -9
-52 -22 -144 -30 -205 -25 -201 -53 -410 -59 -431 -3 -12 -16 -109 -30 -215
-13 -107 -31 -239 -39 -294 -28 -191 -58 -420 -67 -500 -4 -44 -15 -123 -24
-175 -8 -52 -18 -135 -21 -185 -3 -49 -10 -103 -15 -120 -4 -16 -24 -160 -44
-320 -20 -159 -45 -353 -56 -430 -11 -77 -26 -196 -34 -265 -27 -243 -64 -556
-75 -630 -6 -41 -26 -214 -45 -385 -19 -170 -46 -400 -60 -510 -13 -110 -38
-326 -55 -480 -16 -154 -39 -356 -50 -450 -26 -221 -51 -444 -100 -905 -22
-206 -52 -476 -65 -600 -13 -124 -39 -358 -56 -520 -18 -162 -33 -333 -35
-380 -2 -77 -7 -137 -19 -212 -3 -19 1 -30 13 -37 26 -14 447 -53 537 -49 l80
3 10 62 c6 34 15 66 20 72 11 11 176 -4 214 -20 16 -7 28 -6 37 2 10 8 28 7
71 -7 47 -15 53 -19 34 -24 -22 -5 -22 -6 -6 -20 13 -11 15 -23 10 -56 -4 -26
-2 -45 5 -49 6 -4 54 -11 108 -16 186 -17 568 -48 672 -54 58 -4 123 -9 145
-11 22 -2 83 -6 136 -8 52 -3 106 -7 120 -10 13 -3 150 -10 304 -16 315 -12
359 -15 374 -25 6 -3 11 -2 11 3 0 11 -55 88 -69 97 -14 8 -14 52 -1 57 6 2
65 0 132 -4 67 -5 123 -7 125 -5 2 2 2 343 1 758 -3 613 -5 749 -15 726 -9
-19 -17 -26 -25 -20 -7 4 -38 8 -68 9 -136 6 -305 24 -308 34 -5 15 -55 12
-80 -6 -12 -8 -36 -20 -53 -24 -25 -8 -30 -6 -25 5 3 8 1 15 -4 15 -6 0 -33
16 -62 36 -29 21 -48 30 -45 21 12 -32 -15 -35 -173 -21 -174 15 -209 21 -226
35 -7 6 -28 7 -48 3 -20 -3 -42 -2 -49 4 -6 5 -27 13 -45 17 -32 7 -34 6 -27
-15 6 -19 4 -21 -17 -15 -12 4 -39 19 -58 32 -31 21 -36 22 -47 8 -12 -17 -16
-17 -171 7 -40 6 -75 14 -77 19 -12 19 -1 179 13 188 4 3 9 22 10 41 1 19 3
58 5 85 5 67 53 398 67 460 7 28 13 68 14 90 3 47 6 65 52 370 19 127 40 244
45 260 6 17 12 50 14 75 4 58 20 183 45 340 11 69 25 159 31 200 11 77 25 116
56 160 17 23 17 24 0 17 -16 -6 -17 -1 -12 71 4 42 9 84 13 92 3 8 6 24 7 35
1 11 12 76 25 145 12 69 24 143 27 165 2 22 13 52 24 68 16 22 17 27 4 27 -31
0 -13 40 40 87 30 28 55 55 55 61 0 7 7 12 16 12 9 0 35 17 58 38 23 20 57 48
76 62 19 14 41 32 50 40 41 38 139 120 144 120 2 0 20 14 38 30 35 33 58 39
58 15 0 -8 -4 -15 -8 -15 -9 0 -203 -161 -287 -238 -28 -26 -84 -76 -123 -111
-40 -35 -70 -66 -67 -69 3 -3 12 3 20 14 20 27 37 14 118 -92 87 -115 109
-143 125 -159 24 -27 10 -51 -69 -115 -106 -86 -183 -159 -176 -166 3 -4 18 6
32 20 14 14 28 26 32 26 8 0 87 63 96 77 4 7 20 19 35 27 15 8 46 32 69 53 39
37 41 41 25 55 -28 24 -62 71 -62 85 0 7 -7 13 -15 13 -8 0 -15 7 -15 16 0 14
-76 115 -92 122 -5 2 -8 12 -8 22 0 10 -5 20 -11 22 -6 2 -9 16 -7 31 l3 28
52 -50 c29 -28 59 -63 67 -79 15 -28 46 -51 46 -33 0 4 -16 29 -35 54 -19 25
-35 52 -35 60 0 8 -12 27 -26 43 l-27 28 24 16 c13 8 31 22 40 32 10 9 20 14
23 11 3 -4 6 1 6 10 0 10 4 17 9 17 8 0 114 83 172 134 40 35 58 39 69 13 5
-12 9 -18 9 -12 1 14 54 -46 133 -151 65 -87 79 -114 58 -114 -5 0 -42 -30
-82 -66 -40 -36 -95 -83 -123 -104 -27 -21 -62 -49 -77 -63 -15 -14 -31 -27
-37 -28 -6 -2 -8 -14 -5 -25 l6 -22 26 24 c39 35 250 206 276 224 12 8 35 27
50 41 27 26 27 27 12 57 -9 17 -21 34 -26 37 -16 10 -109 153 -103 158 7 8 63
-13 63 -23 0 -5 -5 -10 -11 -12 -6 -2 10 -21 35 -42 40 -33 45 -40 34 -54 -7
-10 -8 -14 -4 -10 5 5 18 -6 28 -22 26 -44 44 -47 76 -14 16 16 55 49 86 74
32 25 73 57 91 72 18 16 38 28 44 28 6 0 11 6 11 13 0 6 17 21 38 32 l37 20 3
674 2 675 -30 -29 -31 -30 -34 40 c-48 56 -205 272 -205 282 0 5 39 43 88 85
48 42 105 93 127 113 22 20 50 43 63 52 19 13 32 53 17 53 -3 0 -60 -48 -128
-107 -67 -60 -141 -124 -165 -144 -23 -20 -42 -42 -42 -48 0 -7 46 -77 103
-154 56 -78 115 -161 130 -185 30 -47 32 -76 4 -48 -9 10 -22 14 -28 11 -6 -5
-10 0 -9 11 4 35 0 42 -32 53 -25 9 -29 14 -19 20 18 11 4 34 -16 27 -11 -4
-13 -2 -9 9 4 10 -1 15 -14 15 -13 0 -19 6 -18 18 3 39 -2 54 -17 48 -8 -3
-14 0 -12 7 1 6 -8 13 -21 15 -13 2 -26 11 -29 20 -4 9 -12 24 -20 32 -7 8
-21 26 -31 39 l-18 23 -66 -56 c-37 -31 -69 -56 -72 -56 -15 0 -3 24 24 51 16
17 35 38 42 48 7 9 31 26 52 37 22 11 44 29 50 39 6 11 24 31 40 45 16 14 48
44 70 66 23 23 53 49 69 59 15 9 27 22 27 29 0 6 17 22 36 36 20 14 43 32 52
41 9 9 30 24 45 34 28 18 29 20 25 94 -4 65 -9 83 -38 129 -23 37 -36 49 -42
40 -6 -10 -10 -7 -14 10 -4 12 -10 22 -15 22 -5 0 -6 7 -3 15 4 9 0 15 -8 15
-23 0 -50 34 -37 47 8 8 5 13 -10 18 -12 3 -19 11 -15 16 8 14 -15 39 -36 39
-9 0 -69 -46 -131 -103 -63 -56 -129 -116 -148 -132 -82 -71 -141 -129 -141
-137 0 -5 33 -54 73 -109 191 -265 189 -262 171 -278 -14 -15 -19 -12 -50 24
-18 22 -34 43 -34 47 0 3 -14 21 -31 38 -24 23 -29 34 -20 43 15 15 14 28 -1
26 -29 -3 -37 3 -48 39 -15 44 -50 105 -57 98 -8 -8 -29 17 -41 49 -8 24 -11
26 -11 9 -1 -22 -138 -160 -149 -150 -3 3 3 15 14 27 10 11 19 26 19 32 0 22
49 77 67 77 14 0 18 8 18 36 0 37 -32 94 -53 94 -7 0 -13 17 -14 40 0 22 2 40
5 40 4 0 22 -22 40 -48 62 -91 66 -94 95 -87 15 4 27 13 27 20 0 6 15 16 33
22 24 7 32 15 31 31 0 11 4 19 8 15 5 -3 8 3 6 13 -2 13 3 19 17 20 35 2 38 4
26 18 -10 12 -9 17 6 24 10 5 23 7 30 5 6 -2 14 1 18 6 3 6 2 11 -4 11 -6 0
-8 7 -5 15 4 8 17 15 30 15 16 0 24 6 24 18 0 17 53 72 70 72 4 0 19 11 33 24
15 14 35 30 44 36 12 7 14 13 6 16 -6 3 -21 13 -32 23 -19 16 -19 20 -6 31 21
18 -1 43 -30 36 -27 -7 -38 3 -24 20 14 17 -6 47 -43 63 -22 10 -28 19 -25 32
3 13 0 19 -10 19 -12 0 -13 3 -4 13 8 11 6 18 -9 32 -19 17 -20 17 -21 -1 0
-14 -2 -15 -6 -4 -3 8 -12 23 -21 33 -14 15 -13 17 1 17 25 0 10 27 -24 42
-16 7 -29 18 -29 24 0 23 -30 24 -39 1 -11 -27 -119 -132 -128 -123 -4 3 -1
12 5 18 7 7 12 22 12 35 0 13 3 22 8 22 20 -3 31 2 26 14 -6 16 39 59 57 56
16 -4 59 22 59 33 0 5 -9 8 -21 8 -13 0 -23 8 -26 21 -4 12 -11 18 -20 15 -11
-4 -13 -1 -8 15 6 18 4 20 -14 14 -23 -7 -28 4 -9 23 9 9 7 12 -9 12 -17 0
-20 6 -19 30 1 17 6 31 11 33 5 1 31 -29 58 -68 39 -58 53 -70 77 -71 16 -1
31 4 34 12 3 9 -1 14 -12 14 -12 0 -3 14 30 45 26 25 56 45 67 45 13 0 18 5
15 13 -6 18 85 107 110 107 11 0 16 3 13 7 -11 11 14 32 30 26 12 -5 14 -3 8
7 -5 8 9 28 46 61 50 45 54 47 71 31 19 -19 38 0 -251 -262 -82 -74 -150 -141
-150 -148 -1 -12 262 -387 279 -397 5 -3 11 -1 15 5 3 5 23 10 43 10 l37 0
-33 -29 -33 -29 92 -129 c51 -70 94 -130 96 -132 1 -2 3 7 3 21 0 16 -29 67
-76 133 -42 59 -72 110 -67 114 42 26 143 129 143 144 0 16 -5 15 -39 -12 -21
-17 -41 -31 -43 -31 -3 0 -3 14 0 31 3 22 9 29 19 24 10 -3 13 -1 10 9 -7 19
18 40 38 32 12 -4 15 4 15 41 l0 46 -58 -54 c-56 -53 -111 -101 -143 -127 -14
-10 -24 -2 -70 60 -30 40 -58 80 -64 89 -13 23 -71 105 -101 145 l-24 31 127
120 c183 171 229 213 235 213 2 0 22 -27 44 -60 21 -33 43 -60 47 -60 14 0 3
125 -11 126 -7 1 -16 2 -22 3 -5 0 -10 8 -10 16 0 8 -4 15 -10 15 -5 0 -7 6
-4 13 5 14 -52 107 -66 107 -18 0 -39 31 -35 52 5 24 -30 78 -49 78 -20 0 -40
27 -26 35 16 10 1 25 -26 25 -13 0 -24 5 -24 11 0 6 6 9 14 6 9 -4 12 0 9 13
-3 12 -11 16 -25 12 -17 -4 -19 -1 -14 16 5 14 -2 30 -21 54 -15 18 -33 42
-39 53 -6 11 -24 27 -40 36 -16 9 -28 22 -26 28 1 6 -4 11 -10 11 -9 0 -8 4 2
10 12 8 9 10 -12 10 -30 0 -35 9 -15 29 10 10 7 16 -11 30 -18 13 -23 25 -20
52 l3 34 55 -74 c30 -41 54 -83 52 -93 -2 -11 3 -18 13 -18 12 0 15 6 10 21
-5 16 6 33 52 80 52 53 85 77 68 49 -3 -5 -1 -10 5 -10 6 0 9 8 6 18 -5 13 24
46 114 131 l120 113 0 48 c0 27 -5 52 -10 55 -7 4 -7 13 0 26 10 18 6 23 -14
20 -15 -3 -35 20 -29 35 3 8 2 22 -1 31 -6 15 -8 15 -16 3 -8 -13 -10 -12 -10
2 0 9 -11 25 -25 36 -14 11 -25 25 -25 32 0 10 3 10 15 0 21 -18 18 1 -5 28
-11 13 -24 21 -29 18 -5 -3 -14 0 -20 8 -9 11 -9 15 1 19 10 4 10 6 1 6 -7 1
-13 8 -13 16 0 8 -5 15 -11 15 -5 0 -8 4 -4 10 8 13 -27 46 -46 42 -9 -1 -46
-32 -83 -68 -37 -37 -69 -64 -71 -62 -9 8 8 48 20 48 17 0 40 29 30 38 -4 4
-10 1 -12 -5 -6 -17 -23 -17 -23 0 0 22 77 90 94 84 8 -3 18 -1 22 5 8 12 -16
30 -33 24 -14 -6 -23 16 -23 54 0 16 -4 30 -8 32 -5 2 -12 18 -15 36 -5 24 -3
32 8 32 8 0 15 -4 15 -9 0 -11 69 -101 78 -101 15 1 242 229 242 244 0 22 -7
20 -38 -12 -15 -15 -66 -65 -114 -111 l-86 -83 -42 56 c-42 55 -42 56 -37 123
4 60 60 393 72 433 8 26 134 142 146 134 6 -3 16 -18 23 -33 6 -14 25 -46 41
-70 l30 -45 3 63 c3 54 0 65 -17 77 -11 8 -21 24 -23 37 -5 34 -42 34 -77 0
-115 -112 -111 -109 -111 -81 0 17 7 27 20 31 11 3 20 10 20 16 0 6 -7 8 -15
5 -35 -14 -13 35 35 76 47 41 48 43 34 66 -9 13 -13 28 -9 34 3 5 -5 15 -19
22 -27 12 -33 23 -16 33 7 4 7 13 0 26 -11 19 -6 39 9 39 4 0 17 -17 29 -37
12 -21 31 -49 42 -62 22 -26 22 -26 82 32 19 18 24 47 8 47 -5 0 -10 -4 -10
-10 0 -5 -11 -21 -25 -35 -26 -25 -55 -33 -55 -15 0 5 -16 32 -36 60 -31 43
-35 55 -30 87 24 156 69 426 78 463 5 25 12 65 14 90 2 25 8 68 13 95 22 112
31 162 35 205 3 25 10 72 16 105 6 39 10 708 10 1913 l0 1852 -560 0 c-308 0
-560 -3 -560 -7z m950 -4958 c0 -1 -9 -12 -20 -25 -15 -17 -20 -19 -20 -7 0
28 11 46 26 40 8 -3 14 -6 14 -8z m-184 -982 c-11 -11 -19 6 -11 24 8 17 8 17
12 0 3 -10 2 -21 -1 -24z m152 -185 c34 -51 90 -133 124 -181 l63 -89 -65 -60
c-36 -33 -116 -108 -178 -167 -62 -58 -118 -107 -125 -109 -7 -1 -31 27 -55
63 -51 76 -51 66 -1 345 l30 165 64 63 c36 34 69 62 73 62 4 0 36 -42 70 -92z
m-295 -702 c3 -8 -4 -22 -15 -33 -21 -17 -21 -17 -15 0 4 10 7 25 7 33 0 18
16 18 23 0z m77 -31 c0 -8 6 -15 13 -15 6 -1 -24 -34 -68 -75 -44 -41 -82 -70
-84 -64 -2 6 2 16 8 22 6 6 11 21 11 33 0 13 20 40 50 68 51 48 70 56 70 31z
m40 -135 c19 -28 41 -58 48 -68 64 -88 152 -217 152 -223 0 -9 -80 -86 -211
-201 -53 -47 -107 -96 -119 -108 -19 -19 -25 -21 -28 -9 -3 8 -18 27 -33 43
-16 15 -29 33 -29 39 0 6 -6 18 -13 26 -12 13 -12 33 0 121 7 58 22 149 32
203 l19 98 67 64 c37 36 70 65 73 65 4 0 23 -23 42 -50z m-84 -982 c23 -29 63
-84 89 -122 l48 -68 -44 -42 c-24 -23 -78 -71 -119 -106 -41 -36 -97 -86 -125
-112 -27 -26 -53 -48 -57 -48 -4 0 -27 27 -52 59 -53 69 -54 78 -27 218 11 54
23 127 27 162 6 57 12 70 46 108 22 23 43 41 46 40 4 -1 18 9 31 22 l24 24 36
-41 c20 -22 55 -64 77 -94z m246 -325 c13 -21 61 -89 106 -152 45 -63 82 -117
82 -122 0 -7 -78 -85 -130 -129 -14 -11 -61 -53 -104 -93 -121 -110 -106 -108
-165 -24 -27 39 -77 109 -111 155 -33 46 -60 87 -60 92 0 5 11 17 24 28 27 21
184 162 261 234 27 26 55 48 61 48 6 0 22 -17 36 -37z m-568 -268 c3 -9 -3
-19 -16 -26 -18 -10 -20 -9 -15 6 4 9 7 21 7 26 0 15 17 10 24 -6z m117 -153
c19 -26 70 -95 113 -154 l77 -106 -53 -49 c-89 -83 -151 -137 -203 -178 -27
-22 -52 -42 -55 -46 -20 -24 -74 13 -107 74 -9 18 1 119 31 295 l14 83 69 64
c37 36 70 64 73 64 3 0 21 -21 41 -47z m321 -434 c64 -86 98 -141 98 -157 0
-15 -63 -42 -70 -31 -3 5 -25 4 -50 0 -68 -14 -155 -12 -197 4 -21 8 -46 17
-56 20 -17 5 -17 7 0 33 9 16 46 55 82 88 35 33 76 72 90 87 14 15 31 27 37
28 6 0 36 -33 66 -72z m-205 5 c2 -6 -3 -13 -12 -16 -10 -5 -15 0 -15 14 0 21
21 22 27 2z m-41 -42 c-4 -6 -19 -10 -34 -10 -24 2 -24 2 -4 6 12 2 22 12 22
21 0 12 3 13 11 5 6 -6 8 -16 5 -22z m-281 -73 c19 -29 35 -56 35 -60 0 -16
-31 -8 -37 10 -4 9 -17 32 -30 51 -25 36 -29 51 -13 51 5 0 25 -24 45 -52z
m199 8 c-10 -8 -21 -12 -24 -10 -5 6 21 24 34 24 6 0 1 -6 -10 -14z m-234
-162 c0 -2 -7 -4 -15 -4 -8 0 -15 4 -15 10 0 5 7 7 15 4 8 -4 15 -8 15 -10z
m67 10 c-3 -3 -12 -4 -19 -1 -8 3 -5 6 6 6 11 1 17 -2 13 -5z m750 -37 c3 -4
-8 -7 -25 -7 -18 0 -32 4 -32 9 0 11 46 8 57 -2z m-147 -1076 c0 -7 126 -9
155 -1 6 1 20 -1 33 -5 18 -6 20 -10 11 -21 -6 -8 -16 -14 -22 -14 -6 0 -31
-20 -56 -45 -55 -54 -157 -141 -190 -163 -23 -16 -25 -15 -56 21 -18 21 -46
57 -61 80 -15 23 -33 47 -38 52 -25 24 -37 57 -27 69 6 7 8 15 5 18 -3 4 32 5
78 4 46 -1 96 1 113 5 43 10 55 10 55 0z m-760 -13 c16 10 25 10 35 2 7 -6 25
-8 39 -4 19 4 26 2 26 -9 0 -8 7 -17 15 -21 30 -11 14 -21 -32 -19 -27 1 -39
-1 -28 -4 11 -3 24 -9 29 -14 13 -12 -45 -68 -81 -78 -15 -4 -28 -14 -28 -22
0 -13 -23 -38 -36 -39 -3 0 -15 18 -27 39 -28 50 -17 92 16 59 9 -9 12 0 12
40 0 53 18 91 32 68 5 -8 13 -8 28 2z m460 -90 c0 -17 -40 13 -55 42 -23 44
-18 45 20 4 19 -20 35 -41 35 -46z m-540 -168 c0 -13 -6 -16 -25 -12 -33 6
-51 38 -34 58 10 13 15 12 36 -7 12 -13 23 -30 23 -39z m219 -4687 c15 -13 18
-22 12 -33 -9 -12 -14 -12 -45 3 -20 9 -36 23 -36 32 0 21 43 19 69 -2z m409
-13 c3 -9 -1 -11 -12 -7 -10 4 -25 7 -34 8 -14 0 -13 2 3 9 25 11 37 8 43 -10z
m-150 -1 c-2 -6 -7 -10 -11 -10 -4 1 -14 1 -22 1 -8 0 -15 5 -15 10 0 6 12 10
26 10 14 0 24 -5 22 -11z m-413 -28 c7 -12 -12 -24 -25 -16 -11 7 -4 25 10 25
5 0 11 -4 15 -9z m745 -56 c0 -16 -4 -23 -14 -19 -8 3 -11 15 -8 29 5 31 22
23 22 -10z"/>
<path d="M13888 12263 c-10 -2 -18 -9 -18 -14 0 -14 16 -11 30 6 7 8 11 14 9
14 -2 -1 -12 -3 -21 -6z"/>
<path d="M13860 11669 c0 -5 5 -7 10 -4 6 3 10 8 10 11 0 2 -4 4 -10 4 -5 0
-10 -5 -10 -11z"/>
<path d="M13868 11643 c7 -3 16 -2 19 1 4 3 -2 6 -13 5 -11 0 -14 -3 -6 -6z"/>
<path d="M13928 8633 c7 -3 16 -2 19 1 4 3 -2 6 -13 5 -11 0 -14 -3 -6 -6z"/>
<path d="M2568 19173 c7 -3 16 -2 19 1 4 3 -2 6 -13 5 -11 0 -14 -3 -6 -6z"/>
<path d="M2575 19139 c-4 -6 -5 -12 -2 -15 2 -3 7 2 10 11 7 17 1 20 -8 4z"/>
<path d="M2660 19109 c0 -5 5 -7 10 -4 6 3 10 8 10 11 0 2 -4 4 -10 4 -5 0
-10 -5 -10 -11z"/>
<path d="M2663 19073 c9 -2 23 -2 30 0 6 3 -1 5 -18 5 -16 0 -22 -2 -12 -5z"/>
<path d="M2593 19043 c9 -2 23 -2 30 0 6 3 -1 5 -18 5 -16 0 -22 -2 -12 -5z"/>
<path d="M2556 18981 c-4 -5 3 -7 14 -4 23 6 26 13 6 13 -8 0 -17 -4 -20 -9z"/>
<path d="M4810 18946 c0 -51 12 -86 30 -86 24 0 28 16 16 67 -7 31 -14 43 -28
43 -12 0 -18 -7 -18 -24z"/>
<path d="M2568 18953 c7 -3 16 -2 19 1 4 3 -2 6 -13 5 -11 0 -14 -3 -6 -6z"/>
<path d="M6340 18861 c0 -5 5 -13 10 -16 6 -3 10 -2 10 4 0 5 -4 13 -10 16 -5
3 -10 2 -10 -4z"/>
<path d="M6775 16451 c-90 -19 -305 -128 -343 -174 -8 -9 -11 -25 -7 -36 6
-21 -12 -56 -52 -100 -12 -14 -20 -28 -17 -32 2 -4 0 -10 -6 -14 -6 -4 -8 -11
-4 -16 3 -5 0 -8 -7 -7 -6 2 -14 -3 -17 -11 -2 -8 0 -11 6 -7 6 4 8 -2 5 -15
-4 -15 -8 -17 -14 -8 -11 18 -58 -30 -122 -123 -57 -85 -80 -103 -41 -34 35
62 47 106 29 106 -7 0 -16 -6 -18 -12 -3 -7 -6 -4 -6 7 -2 42 -121 -173 -121
-219 0 -9 -4 -16 -9 -16 -5 0 -16 -24 -26 -52 -19 -63 -70 -196 -96 -255 -18
-42 -93 -333 -110 -428 -14 -81 -67 -511 -79 -635 -14 -157 -29 -265 -40 -296
-14 -35 -13 -37 10 -31 16 4 20 0 20 -19 0 -13 -5 -24 -10 -24 -6 0 -17 -15
-25 -32 -13 -31 -14 -31 -15 -8 l0 25 -20 -25 c-12 -14 -27 -39 -34 -56 -22
-50 -89 -114 -119 -114 -15 0 -27 -4 -27 -9 0 -5 -8 -11 -17 -15 -10 -3 -25
-10 -33 -16 -8 -5 -42 -21 -75 -36 -33 -14 -116 -53 -185 -86 -114 -55 -129
-66 -158 -109 -18 -27 -27 -51 -22 -54 6 -3 10 -1 10 4 0 6 7 11 15 11 18 0
18 -5 5 -30 -8 -15 -5 -22 13 -37 13 -10 26 -25 29 -34 5 -14 3 -15 -18 -5
-13 6 -24 14 -24 19 0 19 -32 4 -41 -20 -5 -16 -18 -46 -28 -68 -10 -22 -21
-49 -25 -59 -4 -10 -9 -16 -12 -13 -7 7 14 70 38 115 24 43 23 52 -7 52 -16 0
-25 -6 -25 -15 0 -8 -4 -15 -10 -15 -12 0 -108 -195 -116 -236 -5 -28 -3 -32
25 -42 19 -7 33 -7 36 -1 4 5 11 7 16 4 13 -9 11 -41 -4 -54 -11 -8 -16 -6
-24 12 -9 19 -17 23 -42 19 -36 -5 -40 -13 -95 -172 -36 -101 -53 -170 -41
-158 4 4 17 2 29 -4 11 -7 25 -11 29 -10 5 1 6 -2 2 -8 -3 -5 -21 -10 -40 -10
-32 0 -35 -3 -49 -50 -41 -139 -186 -849 -186 -913 0 -11 -10 -31 -22 -44 -17
-18 -23 -39 -26 -91 -4 -52 -11 -76 -32 -107 -14 -22 -39 -73 -53 -113 -15
-41 -39 -89 -53 -107 -26 -34 -23 -45 9 -40 10 2 17 -1 15 -7 -4 -10 -23 -17
-55 -20 -7 -1 -28 -34 -49 -73 -40 -81 -38 -102 13 -124 15 -7 66 -59 113
-116 47 -56 93 -108 103 -114 15 -10 17 -6 17 45 0 71 31 129 64 120 11 -4 68
-15 126 -25 136 -25 257 -57 287 -76 13 -9 28 -26 33 -38 5 -12 22 -36 37 -53
244 -268 406 -538 542 -902 72 -193 117 -292 175 -387 23 -38 55 -92 71 -120
15 -27 64 -100 107 -161 l80 -112 137 -7 c139 -7 234 -9 284 -5 19 1 27 7 27
20 0 25 98 96 113 81 6 -6 17 -11 24 -11 20 0 15 21 -6 27 -15 4 -5 18 56 76
79 77 299 314 480 517 208 234 568 577 647 615 80 39 249 46 406 16 158 -30
213 -48 239 -75 24 -25 21 -39 -29 -149 -12 -26 -19 -53 -17 -60 5 -12 32 41
29 55 -1 4 10 10 26 14 44 9 135 46 164 66 25 17 28 17 56 1 29 -17 30 -16 80
16 70 45 84 70 86 153 1 62 -1 71 -24 88 -18 14 -21 21 -13 32 11 13 5 56 -31
238 -18 87 -14 207 18 565 40 452 49 668 36 871 -11 176 -15 204 -31 204 -5 0
-9 9 -9 21 0 11 5 17 10 14 7 -4 8 8 4 37 -16 114 -46 290 -60 348 -8 36 -17
76 -20 89 -10 48 -121 226 -177 285 -56 58 -59 60 -73 42 -8 -11 -14 -29 -14
-40 0 -12 -4 -27 -8 -34 -5 -7 -8 7 -8 35 0 60 -9 101 -27 122 -8 9 -18 27
-22 41 -3 14 -13 40 -21 58 -20 44 -12 66 10 25 9 -18 19 -33 21 -33 11 0 4
19 -21 56 -34 49 -174 323 -174 338 0 7 -9 30 -19 52 -19 39 -22 64 -37 306
-4 59 -10 105 -15 102 -5 -3 -9 5 -9 18 0 13 -4 52 -9 88 -28 204 -32 250 -26
300 4 35 0 80 -10 125 -9 39 -20 104 -25 145 -4 41 -13 96 -19 121 -6 26 -15
89 -21 140 -17 156 -22 181 -42 254 -11 39 -23 88 -28 110 -5 22 -28 92 -50
155 -23 63 -45 130 -50 148 -19 76 -174 303 -204 301 -6 0 -5 -3 2 -6 6 -2 12
-10 12 -16 0 -6 -14 2 -31 19 -30 27 -31 27 -26 7 13 -54 -42 -20 -62 38 -10
30 -8 33 34 30 20 -2 20 -2 0 14 -12 9 -21 12 -23 5 -5 -15 -22 -12 -22 4 0 9
-20 19 -55 27 -30 7 -55 16 -55 21 0 11 -70 -1 -87 -14 -7 -6 -11 -14 -8 -18
3 -4 -2 -11 -11 -14 -13 -5 -15 -2 -11 14 3 11 2 18 -3 15 -8 -5 -66 46 -94
85 -12 16 -20 21 -23 13 -3 -7 -9 -13 -15 -13 -6 0 -8 6 -5 14 4 9 -3 16 -16
20 -38 11 -220 15 -262 7z m240 -71 c3 -5 1 -10 -4 -10 -6 0 -11 5 -11 10 0 6
2 10 4 10 3 0 8 -4 11 -10z m70 -90 c3 -5 -1 -10 -9 -10 -9 0 -16 5 -16 10 0
6 4 10 9 10 6 0 13 -4 16 -10z m10 -90 c3 -5 -1 -10 -9 -10 -8 0 -18 5 -21 10
-3 6 1 10 9 10 8 0 18 -4 21 -10z m-585 -60 c-11 -21 -30 -27 -30 -9 0 5 -4 7
-10 4 -5 -3 -7 0 -5 7 3 8 17 15 31 16 22 2 23 -1 14 -18z m708 -9 c4 -27 -19
-82 -33 -78 -15 5 -18 49 -5 81 12 32 33 30 38 -3z m-751 -36 c-4 -8 -12 -15
-19 -14 -10 0 -10 2 0 6 6 2 12 12 12 21 0 8 3 13 6 9 4 -3 4 -13 1 -22z m978
15 c-4 -6 -1 -17 5 -25 10 -12 9 -15 -3 -15 -9 0 -18 4 -21 9 -8 12 4 41 16
41 5 0 6 -5 3 -10z m-920 -39 c-7 -12 -45 -34 -45 -27 0 3 10 14 22 26 22 20
36 21 23 1z m686 -109 c-6 -2 -11 -8 -11 -13 0 -6 5 -7 10 -4 6 3 10 0 10 -8
0 -8 7 -18 16 -21 12 -4 14 -14 9 -36 -4 -17 -2 -30 3 -30 5 0 12 -44 15 -98
6 -103 22 -156 43 -148 8 3 11 0 8 -8 -3 -7 20 -34 53 -62 83 -71 123 -113
167 -174 58 -82 74 -119 79 -185 4 -70 -8 -216 -23 -260 -6 -17 -19 -92 -30
-166 -11 -73 -26 -151 -33 -171 -14 -41 -77 -121 -77 -99 0 8 -7 5 -18 -9 -14
-17 -30 -22 -82 -24 -40 -2 -68 1 -72 8 -5 7 -8 4 -8 -6 0 -11 -8 -18 -21 -18
-11 0 -18 4 -15 9 4 5 1 32 -5 61 -11 50 -6 100 9 100 5 0 18 -9 30 -20 20
-19 23 -19 56 -3 32 15 56 43 38 43 -4 0 -25 16 -46 35 -22 19 -43 35 -48 35
-4 0 -8 6 -8 14 0 8 -3 16 -8 18 -16 7 -99 128 -141 206 -44 82 -72 112 -45
47 18 -45 18 -90 -2 -109 -21 -21 -22 -21 -99 15 -64 29 -67 30 -81 12 -7 -10
-14 -24 -14 -31 0 -7 -20 -22 -45 -33 -46 -20 -68 -47 -63 -76 2 -12 -6 -17
-32 -20 -19 -2 -58 -10 -86 -18 -58 -17 -124 -15 -146 2 -12 10 -14 5 -14 -34
1 -53 27 -81 49 -53 13 17 21 18 55 6 14 -5 28 -3 38 4 17 15 150 9 179 -8 19
-10 18 -11 -5 -20 -14 -6 -37 -13 -53 -17 l-27 -5 20 -22 c11 -12 20 -29 20
-37 0 -22 38 -45 79 -48 19 -1 38 -8 42 -14 4 -7 21 -12 37 -12 29 0 44 8 86
50 l23 22 36 -37 c20 -21 37 -45 37 -55 0 -24 37 -40 75 -33 32 6 33 5 27 -18
-4 -13 -28 -43 -54 -66 -48 -42 -122 -70 -202 -75 -22 -2 -45 -10 -51 -19 -11
-15 -24 -16 -197 -17 -15 0 -60 15 -100 34 -40 19 -99 44 -131 57 -32 13 -71
36 -87 50 -17 14 -41 33 -54 42 -54 39 -107 181 -112 303 -2 50 -8 117 -14
150 -32 179 -32 183 -11 263 63 236 80 295 81 274 0 -20 3 -21 20 -12 23 13
28 55 5 47 -8 -4 -17 -3 -19 2 -12 19 24 121 61 176 38 56 158 185 213 229 32
25 112 53 207 70 43 8 94 19 113 25 19 6 49 11 66 11 18 0 34 6 37 14 6 14 36
22 131 31 40 5 56 3 51 -4 -3 -6 -1 -11 4 -11 6 0 11 11 11 24 0 17 5 23 18
22 13 -1 18 9 22 39 4 36 5 33 8 -20 2 -36 -1 -61 -7 -63z m-591 70 c0 -8 -52
-42 -65 -42 -9 0 48 49 58 50 4 0 7 -4 7 -8z m-120 -6 c0 -3 -4 -8 -10 -11 -5
-3 -10 -1 -10 4 0 6 5 11 10 11 6 0 10 -2 10 -4z m-330 -105 c0 -6 -4 -12 -8
-15 -5 -3 -9 1 -9 9 0 8 4 15 9 15 4 0 8 -4 8 -9z m-43 -123 c-3 -8 -6 -5 -6
6 -1 11 2 17 5 13 3 -3 4 -12 1 -19z m927 -1032 c19 -40 21 -73 4 -78 -7 -3
-33 4 -59 15 l-47 20 31 39 c16 21 36 38 43 38 6 0 19 -15 28 -34z m-314 -56
c0 -5 -7 -10 -15 -10 -8 0 -15 5 -15 10 0 6 7 10 15 10 8 0 15 -4 15 -10z
m270 -83 c26 -13 42 -67 20 -67 -6 0 -8 -4 -5 -10 3 -5 -1 -10 -10 -10 -9 0
-13 5 -10 10 3 6 -1 10 -9 10 -9 0 -16 5 -16 12 0 6 -3 9 -6 5 -4 -3 -13 1
-21 9 -8 8 -18 12 -23 9 -5 -3 -19 -1 -33 4 -16 6 -28 6 -36 -2 -13 -13 -26
-3 -16 13 18 29 120 40 165 17z m-1280 -517 c0 -10 -5 -22 -11 -26 -8 -4 -9 1
-4 16 5 15 4 20 -4 16 -7 -5 -9 -1 -5 8 8 20 24 11 24 -14z m2 -72 c-7 -7 -12
-8 -12 -2 0 14 12 26 19 19 2 -3 -1 -11 -7 -17z m1004 -103 c10 -8 28 -15 39
-15 29 -1 55 -24 55 -49 0 -12 7 -24 15 -27 23 -9 21 -84 -2 -84 -10 0 -27 -7
-37 -15 -23 -18 -36 -19 -36 -4 0 6 -14 22 -30 36 -17 14 -35 33 -40 43 -8 15
-5 16 18 12 27 -5 27 -5 -10 31 -35 34 -42 47 -39 75 1 17 43 15 67 -3z m-422
-21 c3 -8 2 -12 -4 -9 -6 3 -10 10 -10 16 0 14 7 11 14 -7z m-457 -56 c-3 -8
-6 -5 -6 6 -1 11 2 17 5 13 3 -3 4 -12 1 -19z m1013 -154 c0 -2 -7 -4 -15 -4
-8 0 -15 4 -15 10 0 5 7 7 15 4 8 -4 15 -8 15 -10z m-240 -111 c66 -58 90 -83
88 -94 -2 -8 27 -34 38 -34 1 0 5 -11 9 -25 l8 -25 -21 25 c-12 14 -21 19 -22
13 0 -18 -20 -16 -20 1 0 8 -15 17 -35 20 -19 4 -35 11 -35 16 0 6 -9 10 -20
10 -21 0 -28 16 -9 22 7 2 1 16 -15 32 -14 16 -26 34 -26 40 0 6 -3 22 -7 36
l-6 25 24 -20 c13 -11 35 -30 49 -42z m-1550 -27 c0 -3 -4 -8 -10 -11 -5 -3
-10 -1 -10 4 0 6 5 11 10 11 6 0 10 -2 10 -4z m1840 -19 c34 -17 47 -30 54
-56 9 -31 7 -35 -31 -70 -22 -20 -49 -41 -59 -48 -18 -11 -18 -12 -1 -12 10
-1 34 6 54 14 l36 15 -43 -47 c-101 -113 -116 -130 -131 -153 -14 -22 -18 -23
-33 -11 -11 10 -15 23 -11 38 3 13 1 23 -5 23 -5 0 -10 -7 -10 -16 0 -9 -6
-14 -12 -11 -15 4 -19 76 -6 93 13 18 -20 46 -46 39 -11 -2 -15 -2 -8 1 8 4
-3 15 -30 29 -52 28 -58 42 -18 42 17 0 26 -3 20 -7 -5 -3 6 -14 25 -23 38
-18 59 -23 36 -8 -11 7 -9 11 8 20 11 7 21 18 21 26 0 8 5 15 10 15 14 0 12
-16 -5 -50 -11 -21 -12 -31 -3 -36 6 -4 8 -3 5 3 -8 13 21 47 48 57 35 13 104
71 105 87 0 9 -9 26 -20 39 -11 13 -20 25 -20 27 0 8 29 0 70 -20z m1097 -29
c-3 -8 -6 -5 -6 6 -1 11 2 17 5 13 3 -3 4 -12 1 -19z m-2940 -45 c-9 -9 -20
-14 -24 -10 -3 4 2 14 13 21 25 19 33 10 11 -11z m2920 -25 c-3 -8 -6 -5 -6 6
-1 11 2 17 5 13 3 -3 4 -12 1 -19z m-1302 -38 c-27 -12 -43 -12 -25 0 8 5 22
9 30 9 10 0 8 -3 -5 -9z m1 -107 c-2 -16 -5 -30 -5 -32 -1 -3 -6 0 -12 6 -8 8
-8 17 0 32 16 29 23 26 17 -6z m-1819 -140 c-3 -10 -5 -4 -5 12 0 17 2 24 5
18 2 -7 2 -21 0 -30z m408 -3 c3 -5 1 -10 -4 -10 -6 0 -11 5 -11 10 0 6 2 10
4 10 3 0 8 -4 11 -10z m-415 -29 c0 -6 -4 -13 -10 -16 -5 -3 -10 1 -10 9 0 9
5 16 10 16 6 0 10 -4 10 -9z m390 -60 c-1 -13 -30 34 -30 48 0 9 7 3 15 -13 8
-15 15 -31 15 -35z m1504 -2 c-9 -10 -23 -19 -31 -19 -15 0 -17 28 -4 48 6 11
10 10 16 -5 6 -16 8 -15 18 7 9 21 11 22 14 7 3 -10 -3 -27 -13 -38z m1546 21
c0 -5 -5 -10 -11 -10 -5 0 -7 5 -4 10 3 6 8 10 11 10 2 0 4 -4 4 -10z m-3385
-50 c3 -5 2 -10 -4 -10 -5 0 -13 5 -16 10 -3 6 -2 10 4 10 5 0 13 -4 16 -10z
m-108 -92 c-3 -8 -6 -5 -6 6 -1 11 2 17 5 13 3 -3 4 -12 1 -19z m2243 -23 c0
-8 -9 -13 -20 -12 -19 1 -27 17 -14 30 10 9 34 -4 34 -18z m-633 -27 c-3 -8
-6 -5 -6 6 -1 11 2 17 5 13 3 -3 4 -12 1 -19z m-1130 -50 c-3 -7 -5 -2 -5 12
0 14 2 19 5 13 2 -7 2 -19 0 -25z m2940 -70 c-3 -8 -6 -5 -6 6 -1 11 2 17 5
13 3 -3 4 -12 1 -19z m20 -10 c-3 -7 -5 -2 -5 12 0 14 2 19 5 13 2 -7 2 -19 0
-25z m222 -21 c1 -10 -3 -15 -9 -12 -5 3 -10 21 -9 38 0 27 2 29 9 12 5 -11 9
-28 9 -38z m-3689 -36 c0 -20 -13 -41 -21 -35 -15 9 -10 44 6 44 8 0 15 -4 15
-9z m1198 -97 c-4 -3 -12 5 -18 18 -12 22 -12 22 6 6 10 -10 15 -20 12 -24z
m1000 -7 c3 -12 -3 -17 -22 -17 -25 0 -35 18 -19 34 12 12 38 2 41 -17z m-238
-14 c0 -20 -3 -24 -11 -16 -7 7 -9 19 -6 27 10 24 17 19 17 -11z m390 7 c0 -5
-4 -10 -10 -10 -5 0 -10 5 -10 10 0 6 5 10 10 10 6 0 10 -4 10 -10z m-452 -75
c4 -33 -18 -55 -55 -55 -27 0 -38 20 -29 54 6 25 25 35 61 33 14 -2 21 -10 23
-32z m-711 -11 c-3 -3 -12 -4 -19 -1 -8 3 -5 6 6 6 11 1 17 -2 13 -5z m1800
-41 c-3 -3 -11 -2 -17 2 -9 6 -9 10 1 16 14 8 27 -7 16 -18z m-2147 -15 c0 -6
-7 -5 -15 2 -8 7 -15 17 -15 22 0 6 7 5 15 -2 8 -7 15 -17 15 -22z m1297 -100
c-3 -8 -6 -5 -6 6 -1 11 2 17 5 13 3 -3 4 -12 1 -19z m1540 0 c-3 -8 -6 -5 -6
6 -1 11 2 17 5 13 3 -3 4 -12 1 -19z m-3749 -31 c2 -11 -3 -15 -17 -14 -21 1
-28 17 -14 31 10 10 28 1 31 -17z m2197 -55 c-6 -28 -9 -33 -14 -19 -4 10 -10
18 -14 18 -4 -1 -7 1 -7 4 0 3 0 10 0 15 0 6 7 10 15 10 8 0 15 8 16 18 0 11
2 12 6 4 3 -7 2 -30 -2 -50z m-238 -24 c-3 -8 -6 -5 -6 6 -1 11 2 17 5 13 3
-3 4 -12 1 -19z m653 -13 c0 -22 -17 -26 -35 -9 -13 13 -14 19 -4 25 16 10 39
0 39 -16z m-1810 -25 c0 -11 -7 -20 -15 -20 -13 0 -14 4 -5 20 6 11 13 20 15
20 3 0 5 -9 5 -20z m2180 -76 c0 -8 -7 -14 -15 -14 -8 0 -15 9 -15 20 0 13 5
18 15 14 8 -4 15 -12 15 -20z m990 -59 c0 -8 -4 -15 -10 -15 -5 0 -10 7 -10
15 0 8 5 15 10 15 6 0 10 -7 10 -15z m-236 -80 c-4 -8 -8 -15 -10 -15 -2 0 -4
7 -4 15 0 8 4 15 10 15 5 0 7 -7 4 -15z m-3943 -58 c-8 -8 -11 -5 -11 9 0 27
14 41 18 19 2 -9 -1 -22 -7 -28z m179 18 c0 -8 -4 -15 -10 -15 -5 0 -7 7 -4
15 4 8 8 15 10 15 2 0 4 -7 4 -15z m-183 -57 c-3 -8 -6 -5 -6 6 -1 11 2 17 5
13 3 -3 4 -12 1 -19z m2090 -8 c24 -49 -37 -92 -78 -54 -22 19 -24 36 -8 65
15 29 69 22 86 -11z m-750 -42 c-3 -8 -6 -5 -6 6 -1 11 2 17 5 13 3 -3 4 -12
1 -19z m420 0 c-3 -8 -6 -5 -6 6 -1 11 2 17 5 13 3 -3 4 -12 1 -19z m2403
-154 c0 -8 -6 -11 -15 -8 -8 4 -15 12 -15 20 0 8 6 11 15 8 8 -4 15 -12 15
-20z m-4212 -62 c3 -32 -11 -62 -29 -62 -20 0 -31 42 -18 71 16 40 43 35 47
-9z m210 -31 c-14 -5 -31 15 -23 29 5 8 11 6 20 -7 9 -11 10 -19 3 -22z m-211
-77 c-3 -3 -12 -4 -19 -1 -8 3 -5 6 6 6 11 1 17 -2 13 -5z m73 -64 c0 -5 -2
-10 -4 -10 -3 0 -8 5 -11 10 -3 6 -1 10 4 10 6 0 11 -4 11 -10z m1747 -12 c-3
-8 -6 -5 -6 6 -1 11 2 17 5 13 3 -3 4 -12 1 -19z m-1526 -134 c12 -14 11 -16
-5 -13 -11 2 -21 10 -24 17 -5 17 13 15 29 -4z m3559 -45 c0 -5 -7 -9 -15 -9
-9 0 -12 6 -9 15 6 15 24 11 24 -6z m-1748 -66 c23 -21 23 -45 -1 -67 -25 -23
-54 -14 -70 20 -10 22 -9 30 5 45 21 23 42 24 66 2z m-2124 -76 c2 -11 -3 -17
-16 -17 -11 0 -22 -3 -25 -7 -2 -5 -2 -2 0 5 1 8 3 20 3 29 0 20 34 12 38 -10z
m1849 -89 c-3 -7 -5 -2 -5 12 0 14 2 19 5 13 2 -7 2 -19 0 -25z m-1672 6 c75
-18 132 -52 65 -39 -38 7 -150 45 -150 51 0 7 12 5 85 -12z m175 -24 c0 -5 -2
-10 -4 -10 -3 0 -8 5 -11 10 -3 6 -1 10 4 10 6 0 11 -4 11 -10z m3277 -242
c-3 -8 -6 -5 -6 6 -1 11 2 17 5 13 3 -3 4 -12 1 -19z m-2397 -69 c85 -11 166
-22 180 -24 14 -2 93 -11 175 -20 83 -9 183 -25 223 -36 40 -11 81 -17 92 -14
14 5 20 2 20 -9 0 -22 13 -20 27 3 13 21 116 56 139 47 32 -12 11 -26 -40 -26
-109 0 -81 -47 42 -70 71 -12 82 -9 82 26 0 13 5 24 10 24 6 0 11 12 11 28 2
26 2 26 6 2 3 -22 9 -25 49 -26 25 -1 49 -5 52 -11 4 -5 77 -20 162 -33 151
-22 175 -31 165 -58 -4 -11 2 -12 28 -5 67 16 157 -5 157 -37 0 -14 -27 -13
-32 1 -2 6 -13 10 -23 7 -17 -3 -14 -6 14 -21 19 -10 44 -14 57 -11 14 4 31 1
40 -7 12 -10 18 -9 32 4 15 16 15 17 -6 17 -25 0 -30 25 -6 34 25 10 52 7 60
-5 5 -9 -2 -10 -22 -6 -16 3 -23 4 -16 1 6 -3 12 -12 12 -19 0 -18 37 -39 44
-26 4 5 3 17 0 28 -5 15 -2 14 14 -4 11 -12 22 -19 26 -16 3 4 6 2 6 -4 0 -6
11 -14 24 -17 19 -5 25 -14 28 -46 2 -25 0 -39 -7 -36 -5 2 -9 13 -8 25 2 18
-1 20 -24 15 -17 -5 -24 -3 -19 4 4 7 -5 7 -29 -1 -32 -10 -48 -27 -25 -27 6
0 10 -6 10 -14 0 -9 -8 -12 -24 -9 -26 5 -40 28 -29 45 4 7 1 8 -7 3 -7 -4
-16 -2 -21 6 -4 7 -11 11 -14 7 -4 -3 1 -18 11 -33 14 -21 15 -28 4 -38 -10
-9 -11 -9 -6 1 4 7 1 12 -8 12 -15 0 -39 33 -31 42 3 3 -6 10 -21 16 -18 9
-23 9 -18 1 3 -6 0 -16 -7 -21 -11 -8 -10 -9 3 -4 11 3 19 -2 23 -15 7 -22 -5
-42 -12 -21 -3 6 -9 12 -15 12 -6 0 -17 8 -24 18 -12 16 -13 15 -23 -8 -5 -14
-10 -19 -10 -12 -1 6 -10 12 -20 12 -11 0 -23 5 -26 10 -10 16 -25 12 -25 -6
0 -14 -3 -14 -15 -4 -10 9 -15 9 -15 1 0 -6 -5 -11 -11 -11 -5 0 -8 4 -5 9 3
4 -6 18 -19 31 l-24 23 5 -27 c3 -19 0 -26 -11 -26 -9 0 -13 5 -10 10 3 6 -3
10 -15 10 -12 0 -25 10 -32 25 -15 33 -30 32 -17 -1 11 -31 12 -29 -26 -37
-16 -4 -24 -4 -18 -1 8 4 3 14 -16 30 -35 29 -41 30 -34 4 3 -11 0 -20 -6 -20
-6 0 -11 5 -11 10 0 6 -6 10 -13 10 -8 0 -22 9 -33 21 -16 17 -16 22 -4 29 10
7 11 10 3 10 -7 0 -16 0 -20 0 -5 1 -10 -13 -13 -31 -5 -29 -7 -31 -55 -34
-27 -1 -44 0 -37 2 7 3 12 22 12 44 0 24 -5 39 -12 40 -10 0 -10 2 0 6 18 7
14 24 -5 21 -10 -2 -17 3 -16 10 2 7 -7 12 -22 12 -31 0 -32 -11 -4 -28 31
-19 17 -25 -17 -7 -16 8 -24 15 -19 15 6 1 -1 7 -15 14 -14 8 -29 12 -34 9
-17 -11 -119 -3 -147 11 -16 8 -29 11 -29 8 0 -25 23 -82 40 -100 12 -12 16
-22 11 -22 -14 0 -49 39 -57 62 -3 10 -13 18 -22 19 -14 0 -13 2 3 9 24 10 24
11 -47 15 -50 3 -117 24 -78 25 12 0 12 2 1 13 -11 10 -14 10 -18 0 -3 -8 -24
-13 -56 -13 -36 0 -47 3 -37 10 8 5 12 12 8 15 -3 4 -15 1 -25 -6 -16 -9 -59
-8 -209 5 -104 10 -193 21 -198 26 -5 5 -22 6 -37 3 -16 -3 -35 -1 -41 4 -7 6
-42 11 -78 11 -36 1 -66 6 -68 10 -1 5 -14 7 -27 4 -21 -4 -24 -1 -18 13 5 15
2 17 -14 13 -12 -3 -27 -2 -34 3 -11 7 -11 9 2 9 12 0 14 8 11 31 l-5 31 84
-7 c46 -4 154 -15 239 -26z m3007 -193 c-2 -6 -11 -12 -20 -14 -11 -2 -15 1
-12 11 7 16 37 19 32 3z m-2244 -12 c8 -8 -3 -34 -14 -34 -5 0 -9 9 -9 20 0
19 11 26 23 14z m1000 -11 c-7 -2 -19 -2 -25 0 -7 3 -2 5 12 5 14 0 19 -2 13
-5z m47 -9 c0 -8 -4 -12 -10 -9 -5 3 -10 10 -10 16 0 5 5 9 10 9 6 0 10 -7 10
-16z m-974 -31 c-10 -10 -34 11 -29 24 5 14 8 13 20 -2 7 -10 11 -20 9 -22z
m-455 -6 c-8 -8 -11 -7 -11 4 0 20 13 34 18 19 3 -7 -1 -17 -7 -23z m-517 2
c-6 -11 -24 -2 -24 11 0 5 7 7 15 4 8 -4 12 -10 9 -15z m1096 -1 c0 -6 -3 -8
-7 -5 -3 4 -12 2 -20 -5 -7 -6 -17 -8 -20 -4 -8 8 16 26 35 26 6 0 12 -5 12
-12z m1410 -4 c0 -2 -7 -4 -15 -4 -8 0 -15 4 -15 10 0 5 7 7 15 4 8 -4 15 -8
15 -10z m370 -10 c0 -8 -4 -12 -10 -9 -5 3 -10 10 -10 16 0 5 5 9 10 9 6 0 10
-7 10 -16z m-1895 -14 c15 -6 8 -9 -27 -9 -27 -1 -48 4 -48 9 0 12 47 12 75 0z
m105 -5 c0 -8 -7 -15 -15 -15 -9 0 -12 6 -9 15 4 8 10 15 15 15 5 0 9 -7 9
-15z m828 -47 c16 -16 15 -28 -2 -28 -17 0 -38 24 -29 33 9 10 17 9 31 -5z
m-1398 -295 c0 -5 -5 -15 -10 -23 -8 -12 -10 -11 -10 8 0 12 5 22 10 22 6 0
10 -3 10 -7z m523 -184 c14 -23 0 -67 -24 -74 -22 -7 -69 18 -69 38 0 7 7 23
16 35 18 27 61 27 77 1z"/>
<path d="M7242 15810 c0 -14 2 -19 5 -12 2 6 2 18 0 25 -3 6 -5 1 -5 -13z"/>
<path d="M6500 15501 c-44 -11 -100 -35 -100 -42 0 -4 21 -10 48 -14 93 -12
112 -16 112 -25 0 -9 -62 -30 -88 -30 -28 0 -73 -32 -107 -76 -40 -53 -42 -61
-17 -68 26 -8 87 9 84 23 -4 17 17 41 35 41 11 0 14 -9 11 -35 -2 -19 0 -35 5
-35 5 0 4 -7 -3 -15 -6 -8 -9 -19 -5 -25 3 -5 1 -10 -6 -10 -24 0 5 -17 59
-34 53 -17 122 -14 122 5 0 5 6 9 13 9 24 0 52 41 52 77 1 19 8 39 16 44 11 7
12 11 1 17 -7 5 -12 15 -10 22 2 7 -18 29 -44 49 -39 29 -45 37 -30 42 9 4 20
5 24 3 4 -3 9 0 13 6 3 5 0 10 -7 10 -10 0 -10 2 0 9 11 6 6 14 -17 30 -32 23
-113 34 -161 22z m0 -141 c0 -5 -6 -7 -14 -4 -8 3 -17 1 -21 -5 -3 -6 -16 -11
-28 -10 -19 1 -18 2 8 14 36 17 55 19 55 5z"/>
<path d="M7058 15498 c-32 -7 -48 -15 -48 -25 0 -12 -3 -13 -14 -4 -17 14 -31
-2 -20 -21 6 -10 5 -10 -8 0 -12 10 -18 10 -27 -2 -10 -12 -8 -17 8 -26 12 -6
21 -7 21 -3 0 4 5 2 12 -5 7 -7 21 -12 31 -12 16 0 17 -3 7 -15 -7 -8 -18 -15
-25 -15 -7 0 -24 -11 -39 -25 -22 -20 -26 -32 -26 -78 0 -63 13 -83 75 -118
33 -19 59 -24 153 -27 128 -5 155 5 166 58 5 30 8 31 43 28 54 -4 55 24 3 86
-22 26 -40 52 -40 58 0 5 -5 6 -11 3 -5 -4 -18 0 -27 8 -9 8 -28 17 -42 19
-21 4 -19 6 14 13 26 5 45 4 58 -4 10 -6 23 -9 28 -6 4 3 10 -1 13 -7 2 -7 3
3 3 22 -2 42 -35 98 -47 79 -6 -10 -13 -10 -31 -2 -64 32 -142 39 -230 21z
m222 -163 c24 -14 24 -14 4 -15 -12 0 -35 7 -50 15 -29 15 -29 15 -4 15 14 -1
36 -7 50 -15z m-140 -80 c0 -31 -12 -38 -36 -21 -18 14 -18 15 0 35 22 24 36
19 36 -14z m154 -16 c-11 -18 -32 -9 -27 11 4 16 8 18 19 9 8 -6 11 -15 8 -20z"/>
<path d="M6544 14903 c-39 -49 -96 -144 -90 -150 5 -5 26 15 89 83 29 32 51
90 38 99 -4 2 -21 -12 -37 -32z"/>
<path d="M6718 14893 c-21 -8 -38 -19 -38 -24 0 -14 43 -28 55 -18 5 5 19 9
31 9 29 0 39 16 24 35 -15 18 -25 18 -72 -2z"/>
<path d="M6820 14455 c0 -9 5 -15 11 -13 6 2 11 8 11 13 0 5 -5 11 -11 13 -6
2 -11 -4 -11 -13z"/>
<path d="M6805 13800 c-3 -5 3 -10 15 -10 12 0 18 5 15 10 -3 6 -10 10 -15 10
-5 0 -12 -4 -15 -10z"/>
<path d="M6826 13351 c-4 -5 3 -7 14 -4 23 6 26 13 6 13 -8 0 -17 -4 -20 -9z"/>
<path d="M6771 13329 c-13 -5 -22 -12 -19 -14 6 -6 58 12 58 20 0 7 -11 5 -39
-6z"/>
<path d="M6642 12520 c0 -14 2 -19 5 -12 2 6 2 18 0 25 -3 6 -5 1 -5 -13z"/>
<path d="M6540 11870 c0 -11 5 -20 10 -20 6 0 10 9 10 20 0 11 -4 20 -10 20
-5 0 -10 -9 -10 -20z"/>
<path d="M6520 11176 c0 -14 5 -26 10 -26 6 0 10 9 10 19 0 11 -4 23 -10 26
-6 4 -10 -5 -10 -19z"/>
<path d="M6640 10577 c-10 -21 -11 -30 -2 -39 17 -17 24 -5 20 34 l-4 33 -14
-28z"/>
<path d="M6213 10583 c9 -2 23 -2 30 0 6 3 -1 5 -18 5 -16 0 -22 -2 -12 -5z"/>
<path d="M6750 10545 c0 -28 4 -35 19 -35 28 0 37 20 12 27 -28 7 -17 23 17
24 l27 1 -25 8 c-45 14 -50 12 -50 -25z"/>
<path d="M6218 10553 c7 -3 16 -2 19 1 4 3 -2 6 -13 5 -11 0 -14 -3 -6 -6z"/>
<path d="M6838 10553 c7 -3 16 -2 19 1 4 3 -2 6 -13 5 -11 0 -14 -3 -6 -6z"/>
<path d="M6790 10479 c0 -5 5 -7 10 -4 6 3 10 8 10 11 0 2 -4 4 -10 4 -5 0
-10 -5 -10 -11z"/>
<path d="M7111 10466 c11 -9 69 -15 64 -6 -3 6 -20 10 -37 10 -17 0 -29 -2
-27 -4z"/>
<path d="M6840 10440 c-12 -8 -11 -10 8 -10 12 0 22 5 22 10 0 13 -11 13 -30
0z"/>
<path d="M6520 9860 c0 -11 5 -20 10 -20 6 0 10 9 10 20 0 11 -4 20 -10 20 -5
0 -10 -9 -10 -20z"/>
<path d="M6347 16220 c-17 -17 -46 -42 -63 -58 -47 -42 -72 -84 -64 -107 6
-17 9 -14 21 18 9 27 21 39 39 44 14 3 35 16 47 28 11 12 34 32 50 45 18 15
24 24 15 27 -10 4 -10 8 -1 19 22 27 -10 15 -44 -16z"/>
<path d="M8013 14525 c0 -27 2 -38 4 -22 2 15 2 37 0 50 -2 12 -4 0 -4 -28z"/>
<path d="M8022 14430 c0 -14 2 -19 5 -12 2 6 2 18 0 25 -3 6 -5 1 -5 -13z"/>
<path d="M14377 14242 c-21 -23 -21 -29 1 -57 l18 -23 1 49 c0 27 0 49 -2 49
-1 0 -9 -8 -18 -18z"/>
<path d="M14332 13462 c-30 -26 -44 -62 -22 -62 6 0 10 4 10 8 0 5 13 22 30
38 50 49 36 61 -18 16z"/>
<path d="M4945 13450 c-3 -5 1 -10 10 -10 9 0 13 5 10 10 -3 6 -8 10 -10 10
-2 0 -7 -4 -10 -10z"/>
<path d="M14293 13365 c-118 -111 -116 -90 -22 -220 27 -38 67 -95 87 -125 36
-53 37 -54 40 -27 3 24 -43 116 -68 137 -4 3 -26 34 -49 69 l-43 63 82 83 c53
53 81 89 78 100 -2 13 -28 -7 -105 -80z"/>
<path d="M14260 13395 c0 -8 -4 -15 -10 -15 -5 0 -10 -6 -10 -13 0 -8 -11 -20
-25 -27 -14 -7 -25 -20 -25 -28 0 -10 6 -8 23 7 12 12 29 27 38 34 21 15 35
57 20 57 -6 0 -11 -7 -11 -15z"/>
<path d="M14300 12599 c-47 -45 -123 -117 -169 -161 -82 -78 -84 -81 -70 -104
7 -13 71 -105 142 -204 70 -98 127 -186 127 -195 0 -8 7 -15 15 -15 12 0 14 4
7 17 -8 13 -3 24 19 46 17 17 29 39 29 55 l0 26 -28 -27 c-15 -15 -32 -27 -38
-27 -5 0 -40 46 -79 101 -38 56 -78 110 -87 120 -10 11 -18 21 -18 24 0 3 -13
24 -30 47 -16 22 -30 44 -30 48 0 7 41 48 228 225 72 70 98 106 75 105 -5 0
-46 -37 -93 -81z"/>
<path d="M14310 12659 c0 -5 5 -7 10 -4 6 3 10 8 10 11 0 2 -4 4 -10 4 -5 0
-10 -5 -10 -11z"/>
<path d="M14241 12598 c-5 -14 -16 -28 -23 -31 -7 -3 -8 -6 -3 -6 6 0 21 9 34
20 18 15 21 23 13 31 -8 8 -14 5 -21 -14z"/>
<path d="M14065 12431 c-15 -17 -15 -19 -1 -17 22 3 40 22 28 30 -5 3 -17 -3
-27 -13z"/>
<path d="M14382 11928 c-16 -16 -15 -43 3 -58 13 -11 15 -7 15 29 0 45 -1 46
-18 29z"/>
<path d="M14350 11855 c0 -18 19 -40 26 -32 4 4 0 15 -9 24 -9 10 -17 13 -17
8z"/>
<path d="M1 10383 l-1 -1431 60 -7 c42 -5 65 -3 75 5 11 9 50 11 140 8 69 -3
128 -2 130 2 7 11 -15 212 -35 316 -10 55 -31 188 -45 294 -14 106 -28 196
-30 200 -5 9 -28 164 -60 415 -24 191 -53 391 -76 538 -6 38 -16 67 -22 67 -9
0 -9 2 0 8 12 8 -3 142 -51 450 -14 86 -30 200 -36 252 -6 52 -19 145 -29 205
l-19 110 -1 -1432z m129 357 c0 -13 -5 -18 -15 -14 -8 4 -15 12 -15 20 0 8 7
14 15 14 8 0 15 -9 15 -20z"/>
<path d="M14115 11720 c-3 -5 -1 -10 4 -10 6 0 11 5 11 10 0 6 -2 10 -4 10 -3
0 -8 -4 -11 -10z"/>
<path d="M7835 9516 c-216 -218 -318 -303 -572 -481 -31 -22 -127 -92 -213
-156 -85 -63 -173 -126 -196 -140 -22 -13 -39 -30 -37 -37 7 -19 -47 -72 -95
-93 -55 -24 -66 -24 -59 2 4 15 2 19 -10 15 -8 -3 -16 -6 -19 -6 -2 0 -1 -7 2
-14 7 -18 -18 -45 -71 -76 -22 -13 -81 -56 -131 -97 -147 -116 -314 -215 -454
-268 -87 -33 -127 -55 -127 -70 0 -8 9 -15 20 -15 11 0 17 -3 14 -6 -10 -10
12 -44 28 -44 8 0 15 -7 15 -15 0 -8 3 -15 8 -16 44 -5 62 -3 62 6 0 18 75 55
112 55 19 0 40 6 47 13 12 10 13 9 7 -7 -4 -10 -1 -35 5 -55 9 -26 9 -36 0
-39 -6 -2 -11 -8 -11 -14 0 -6 6 -8 14 -5 17 7 40 -18 31 -32 -3 -7 0 -8 10
-5 11 5 17 -2 21 -24 7 -35 28 -43 62 -26 32 16 65 6 59 -17 -3 -12 0 -19 9
-19 28 0 16 -63 -20 -98 -24 -24 -32 -39 -28 -57 4 -23 52 -65 52 -46 0 5 9 7
21 4 12 -4 25 0 29 8 7 10 12 6 20 -16 13 -34 5 -54 -31 -73 -22 -11 -27 -9
-55 23 -48 55 -107 143 -141 215 -41 84 -53 98 -89 102 -27 3 -29 0 -29 -29 0
-38 -8 -47 -45 -49 -23 -1 -32 6 -49 37 -25 44 -69 79 -100 79 -29 0 -26 -12
11 -51 36 -39 71 -125 59 -146 -4 -8 -6 -26 -3 -39 3 -18 9 -23 22 -19 23 7
32 -25 14 -50 -12 -17 -15 -17 -38 -1 -14 9 -34 29 -43 44 -10 15 -23 32 -29
38 -21 23 -114 223 -153 331 -23 63 -32 75 -75 105 -32 21 -53 44 -60 65 -6
18 -27 42 -46 55 -29 20 -35 30 -38 66 -3 36 -7 44 -38 58 -51 24 -76 61 -72
104 4 27 0 39 -17 52 -12 10 -28 31 -35 48 -11 26 -10 37 5 78 10 26 25 52 33
58 12 9 6 12 -31 16 -26 3 -54 11 -62 18 -21 17 -19 48 5 62 11 7 20 17 20 23
0 10 -128 189 -228 321 -107 140 -215 290 -225 312 -15 33 -23 27 -35 -30 -45
-202 -72 -439 -72 -633 -1 -66 -5 -165 -10 -220 -29 -317 -68 -831 -75 -1000
-3 -71 -9 -236 -15 -365 -11 -255 -25 -613 -40 -1030 -5 -146 -21 -386 -34
-535 -41 -446 -48 -536 -42 -542 3 -3 33 2 67 11 33 10 63 16 65 13 2 -2 13
-51 24 -108 30 -157 47 -230 57 -240 15 -15 121 -49 154 -49 23 0 47 -14 93
-51 33 -28 64 -59 68 -68 4 -9 7 -44 7 -78 1 -34 5 -73 11 -88 26 -69 195 -86
381 -38 86 22 126 27 234 27 256 1 384 -23 400 -73 3 -12 10 -21 14 -21 5 0
21 -12 37 -27 15 -14 52 -37 80 -50 46 -21 57 -22 95 -12 24 6 70 14 101 19
61 8 100 39 113 89 3 14 16 36 27 50 l21 26 -5 -27 c-3 -17 -1 -25 7 -22 17 7
40 -93 26 -110 -8 -10 -9 -16 -1 -21 5 -3 8 -23 6 -43 -2 -20 -1 -27 1 -15 8
43 33 18 33 -33 0 -19 5 -24 24 -24 24 0 41 24 30 42 -3 5 2 15 11 22 13 9 18
28 19 73 0 33 6 66 11 74 6 8 17 26 25 42 7 15 21 27 29 27 9 0 41 9 71 21 83
32 94 33 138 10 51 -26 56 -35 53 -86 -2 -33 3 -45 27 -69 33 -31 89 -39 116
-17 19 16 21 72 5 156 -8 44 -8 74 1 115 6 30 19 157 28 282 l18 227 73 71
c135 130 250 176 369 145 79 -21 332 -21 372 0 16 8 31 23 34 32 21 75 25
2639 5 2928 -6 77 -25 271 -44 430 -21 173 -39 385 -45 525 -10 243 -28 451
-39 461 -3 3 -78 -67 -166 -155z m-2978 -348 c-3 -8 -6 -5 -6 6 -1 11 2 17 5
13 3 -3 4 -12 1 -19z m-40 -650 c-3 -8 -6 -5 -6 6 -1 11 2 17 5 13 3 -3 4 -12
1 -19z m-37 -3 c0 -8 -2 -15 -4 -15 -2 0 -6 7 -10 15 -3 8 -1 15 4 15 6 0 10
-7 10 -15z m510 -211 c0 -8 -4 -12 -10 -9 -5 3 -10 13 -10 21 0 8 5 12 10 9 6
-3 10 -13 10 -21z m-270 -245 c0 -5 -4 -9 -10 -9 -5 0 -10 7 -10 16 0 8 5 12
10 9 6 -3 10 -10 10 -16z m1527 -98 c22 -29 63 -155 66 -201 2 -43 1 -45 -38
-63 -45 -22 -56 -18 -87 33 l-22 35 23 -20 c13 -11 38 -21 57 -21 30 -1 34 2
36 25 2 40 2 44 -7 70 -5 18 -4 22 5 16 9 -5 11 -4 6 4 -4 6 -11 9 -16 6 -5
-3 -11 -1 -15 5 -13 20 -43 10 -56 -19 -7 -16 -17 -27 -22 -24 -5 3 -6 -5 -3
-18 3 -13 3 -18 0 -11 -3 6 -11 12 -18 12 -16 0 -67 116 -59 136 4 12 15 14
44 9 31 -5 39 -4 40 9 1 9 3 21 4 26 1 6 3 13 4 16 2 10 46 -9 58 -25z m-1267
-37 c0 -8 -4 -12 -10 -9 -5 3 -10 10 -10 16 0 5 5 9 10 9 6 0 10 -7 10 -16z
m880 -113 c0 -5 -10 -16 -22 -24 -19 -13 -20 -16 -6 -16 9 -1 20 4 24 10 9 15
21 0 29 -38 4 -21 3 -33 -4 -33 -6 0 -12 12 -12 28 l-2 27 -4 -27 c-3 -19 -10
-28 -23 -28 -11 0 -24 -8 -29 -19 -8 -14 -6 -23 9 -36 16 -14 30 -17 70 -12
40 5 50 3 50 -8 0 -8 4 -15 8 -15 4 0 9 -11 10 -25 1 -13 3 -30 4 -37 2 -8 -8
-14 -24 -16 -26 -3 -42 -32 -18 -32 6 0 10 -8 9 -17 0 -17 -1 -17 -12 0 -7 10
-32 44 -56 75 -24 32 -63 87 -87 124 -24 37 -48 70 -54 73 -19 12 -11 38 10
32 11 -3 41 1 67 8 60 17 63 17 63 6z m-1120 -121 c0 -5 -4 -10 -10 -10 -5 0
-10 5 -10 10 0 6 5 10 10 10 6 0 10 -4 10 -10z m1608 -119 c-4 -22 -42 -26
-62 -6 -22 23 -20 40 7 53 18 8 25 7 40 -10 10 -12 16 -28 15 -37z m-558 -2
c0 -5 5 -7 11 -3 8 4 8 0 0 -15 -14 -25 -28 -27 -53 -4 -26 23 -22 33 12 33
17 0 30 -5 30 -11z m426 -100 c18 -20 18 -21 -1 -35 -24 -18 -34 -18 -57 3
-30 27 -21 50 23 52 9 1 24 -8 35 -20z m-179 -15 c23 -22 15 -53 -14 -60 -32
-9 -52 3 -77 46 -11 19 -15 31 -10 27 5 -3 16 -2 24 3 17 11 60 2 77 -16z
m-1250 -516 c-3 -8 -6 -5 -6 6 -1 11 2 17 5 13 3 -3 4 -12 1 -19z m303 -498
c0 -5 -2 -10 -4 -10 -3 0 -8 5 -11 10 -3 6 -1 10 4 10 6 0 11 -4 11 -10z"/>
<path d="M6476 9031 c-10 -11 -16 -24 -15 -29 2 -5 14 4 27 20 26 31 15 39
-12 9z"/>
<path d="M6620 8979 c0 -12 -15 -35 -32 -52 -24 -22 -27 -27 -10 -18 13 7 32
27 42 44 22 36 25 47 10 47 -5 0 -10 -9 -10 -21z"/>
<path d="M6617 8914 c-10 -13 -13 -24 -8 -24 10 0 36 39 29 45 -2 2 -11 -8
-21 -21z"/>
<path d="M5755 8879 c-4 -6 -14 -8 -22 -5 -8 4 -36 -5 -62 -19 -25 -14 -70
-29 -100 -34 -34 -5 -60 -16 -70 -28 -9 -11 -25 -23 -35 -27 -10 -3 -16 -9
-13 -13 4 -3 1 -15 -5 -26 -9 -17 -8 -19 8 -13 11 4 33 10 49 13 74 14 322
163 272 163 -9 0 -19 -5 -22 -11z"/>
<path d="M6543 8883 c-13 -2 -23 -10 -23 -17 0 -8 -7 -19 -15 -26 -9 -8 -15
-28 -14 -54 1 -44 16 -113 18 -83 0 9 6 17 11 17 6 0 10 17 10 38 0 40 23 92
46 105 8 4 14 12 14 17 0 10 -8 11 -47 3z"/>
<path d="M6786 8857 c3 -10 9 -15 12 -12 3 3 0 11 -7 18 -10 9 -11 8 -5 -6z"/>
<path d="M5525 8600 c3 -5 8 -10 11 -10 2 0 4 5 4 10 0 6 -5 10 -11 10 -5 0
-7 -4 -4 -10z"/>
<path d="M5490 8580 c0 -5 5 -10 11 -10 5 0 7 5 4 10 -3 6 -8 10 -11 10 -2 0
-4 -4 -4 -10z"/>
<path d="M5537 8568 c-3 -9 -1 -19 6 -21 20 -7 3 -17 -44 -26 l-44 -9 40 -1
c60 -1 145 11 145 20 0 5 -15 9 -32 9 -37 0 -53 8 -60 29 -4 12 -5 12 -11 -1z"/>
<path d="M14339 8513 c-24 -21 -46 -40 -49 -43 -3 -3 -23 -18 -45 -34 -22 -16
-49 -38 -61 -50 -11 -12 -39 -36 -62 -55 -23 -18 -42 -39 -42 -46 0 -7 -13
-15 -29 -18 -29 -6 -52 -37 -27 -37 14 0 39 -30 209 -253 40 -52 39 -67 -2
-104 -19 -16 -22 -22 -10 -23 18 0 69 50 69 69 0 10 -41 72 -60 91 -3 3 -9 13
-15 22 -5 9 -40 56 -77 104 -38 48 -68 94 -68 101 0 8 12 13 28 13 21 0 40
-15 83 -63 31 -34 62 -73 69 -87 7 -13 31 -43 52 -66 22 -23 45 -50 53 -60 11
-15 15 -16 29 -5 25 21 20 42 -7 36 -21 -6 -32 5 -88 82 -104 142 -151 214
-146 227 3 7 61 57 131 112 110 87 145 124 118 124 -5 0 -28 -17 -53 -37z"/>
<path d="M5827 8438 c-28 -29 -15 -32 19 -3 18 15 23 25 14 24 -8 0 -23 -10
-33 -21z"/>
<path d="M5610 8360 c-19 -6 -10 -8 35 -9 42 0 56 2 45 9 -17 11 -45 11 -80 0z"/>
<path d="M5897 8346 c-68 -19 -69 -26 -1 -26 55 0 84 11 84 32 0 11 -26 9 -83
-6z"/>
<path d="M5740 8250 c-14 -4 -43 -9 -65 -9 -37 -2 -39 -3 -21 -16 25 -19 53
-19 90 0 34 18 147 20 164 3 7 -7 12 -8 12 -2 0 29 -117 44 -180 24z"/>
<path d="M13540 8121 c0 -8 57 -71 65 -71 2 0 2 7 -1 15 -4 8 -9 15 -13 15 -4
0 -13 11 -19 25 -11 24 -32 35 -32 16z"/>
<path d="M5842 7979 c1 -13 8 -23 13 -21 15 3 12 35 -3 40 -9 3 -13 -3 -10
-19z"/>
<path d="M6016 7973 c7 -28 30 -52 49 -53 5 0 4 5 -3 12 -7 7 -12 18 -12 26 0
13 -23 42 -34 42 -4 0 -3 -12 0 -27z"/>
<path d="M13670 7955 c-10 -12 -10 -15 4 -15 9 0 16 7 16 15 0 8 -2 15 -4 15
-2 0 -9 -7 -16 -15z"/>
<path d="M13608 7903 c-2 -5 13 -25 34 -46 21 -20 38 -34 38 -29 0 5 -11 19
-25 32 -14 13 -25 29 -25 37 0 14 -16 18 -22 6z"/>
<path d="M14346 7831 c10 -10 21 -17 23 -15 6 6 -20 34 -32 34 -6 0 -2 -8 9
-19z"/>
<path d="M13949 7643 c-13 -15 -12 -15 9 -4 23 12 28 21 13 21 -5 0 -15 -7
-22 -17z"/>
<path d="M13680 6800 c-13 -8 -12 -10 3 -10 9 0 17 5 17 10 0 12 -1 12 -20 0z"/>
<path d="M13105 6340 c-3 -5 -1 -10 4 -10 6 0 11 5 11 10 0 6 -2 10 -4 10 -3
0 -8 -4 -11 -10z"/>
<path d="M6700 4090 c0 -5 5 -10 10 -10 6 0 10 5 10 10 0 6 -4 10 -10 10 -5 0
-10 -4 -10 -10z"/>
<path d="M6782 3621 c-12 -16 -35 -32 -52 -36 -34 -8 -100 11 -100 28 0 7 -5
5 -10 -4 -5 -9 -13 -62 -16 -117 -7 -99 -7 -101 15 -99 11 1 21 7 21 14 0 7 4
13 9 13 4 0 29 16 54 35 25 19 48 35 52 35 9 0 -32 -73 -58 -102 -13 -16 -41
-35 -61 -43 -44 -19 -48 -27 -44 -95 l3 -53 32 27 c91 77 147 175 158 281 4
27 11 69 17 93 13 53 8 60 -20 23z"/>
<path d="M6600 2833 c0 -96 -15 -131 -82 -196 -44 -43 -90 -73 -177 -115 -131
-65 -280 -118 -303 -109 -9 3 -23 25 -32 49 -8 24 -25 69 -37 101 -11 31 -24
57 -28 57 -10 0 -82 -172 -110 -265 -35 -111 -43 -198 -32 -333 12 -143 31
-191 89 -221 81 -41 143 -35 206 20 23 20 26 29 21 59 -6 31 -1 27 49 -45 30
-44 94 -119 141 -167 l86 -87 -38 -42 c-21 -24 -59 -66 -85 -93 -26 -28 -61
-74 -79 -103 -29 -48 -31 -57 -24 -108 4 -38 11 -55 21 -55 8 0 14 6 14 13 0
21 42 73 162 200 98 104 115 118 137 114 34 -7 233 -115 266 -144 33 -30 35
-29 35 10 0 91 -33 133 -156 197 -36 19 -69 40 -71 48 -3 7 16 59 42 114 62
133 75 183 76 298 l1 95 19 -24 c10 -13 19 -33 20 -45 4 -90 14 -107 23 -39 9
61 -8 176 -35 251 -11 31 -34 100 -50 152 -16 52 -34 99 -39 104 -7 7 -10 -22
-10 -82 0 -132 -29 -181 -139 -237 -47 -24 -214 -32 -277 -15 -52 15 -127 80
-122 106 2 9 39 27 92 45 104 35 204 83 285 138 61 41 137 121 151 157 14 37
16 247 3 251 -10 3 -13 -11 -13 -54z m52 -660 c4 -70 -3 -138 -18 -192 -15
-53 -65 -161 -85 -185 -5 -6 -23 -33 -39 -59 -17 -26 -37 -50 -45 -53 -19 -8
-137 68 -173 111 -15 18 -51 51 -80 74 -84 67 -132 159 -132 259 0 48 7 52 39
18 35 -37 115 -67 196 -73 58 -5 85 -1 137 16 73 24 153 73 169 102 16 30 29
22 31 -18z"/>
<path d="M6830 1188 c0 -7 7 -38 15 -68 19 -70 19 -153 0 -189 -29 -58 -119
-115 -215 -136 -30 -7 -82 -21 -115 -30 -71 -20 -128 -11 -183 32 -46 34 -109
134 -117 184 -13 73 -26 27 -32 -112 -9 -203 18 -325 122 -545 61 -130 116
-215 182 -278 l47 -46 169 0 168 0 23 53 c73 167 99 285 99 457 -1 127 -3 142
-37 248 -20 62 -45 159 -56 215 -27 134 -70 267 -70 215z"/>
</g>
</svg>
